<svg xmlns="http://www.w3.org/2000/svg" viewBox="0 0 120 120" role="img" aria-label="Agent SkillOS mark"><defs><linearGradient id="g" x1="15" y1="10" x2="105" y2="110" gradientUnits="userSpaceOnUse"><stop stop-color="#8AF7FF"/><stop offset="0.55" stop-color="#A78BFA"/><stop offset="1" stop-color="#7CF7B2"/></linearGradient><filter id="s" x="-30%" y="-30%" width="160%" height="160%"><feDropShadow dx="0" dy="0" stdDeviation="8" flood-color="#8AF7FF" flood-opacity="0.45"/></filter></defs><rect width="120" height="120" rx="30" fill="#07111F"/><path d="M60 14 99 37v46L60 106 21 83V37L60 14Z" fill="url(#g)" opacity="0.96" filter="url(#s)"/><path d="M60 31 84 45v30L60 89 36 75V45l24-14Z" fill="#07111F" opacity="0.9"/><path d="M60 42 74 50v20l-14 8-14-8V50l14-8Z" fill="url(#g)"/><path d="M60 20v22M60 78v22M26 40l20 10M94 40 74 50M26 80l20-10M94 80 74 70" stroke="#EAF7FF" stroke-opacity="0.58" stroke-width="4" stroke-linecap="round"/></svg>